<svg width="16" height="17" viewBox="0 0 16 17" fill="none" xmlns="http://www.w3.org/2000/svg">
<path d="M1.71429 14H14.2857C15.231 14 16 14.5954 16 15.327V15.673C16 16.4047 15.231 17 14.2857 17H1.71429C0.768952 17 -2.98023e-07 16.4047 -2.98023e-07 15.673V15.327C-2.98023e-07 14.5953 0.768952 14 1.71429 14Z" fill="#3A3A3A"/>
<path d="M3.7143 7.41602H12.2858C13.3493 7.41602 14.2144 8.08276 14.2144 8.90245V9.28958C14.2144 10.1093 13.3493 10.776 12.2858 10.776H3.7143C2.6508 10.776 1.78572 10.1093 1.78572 9.28958V8.90245C1.78572 8.08276 2.65101 7.41602 3.7143 7.41602Z" fill="#3A3A3A"/>
<path d="M14 4.27406H1.99994C0.936652 4.27406 0.071362 3.60738 0.071362 2.78778V2.40035C0.071362 1.58075 0.936652 0.914062 1.99994 0.914062H14C15.0635 0.914062 15.9286 1.58075 15.9286 2.40035V2.78778C15.9286 3.60738 15.0635 4.27406 14 4.27406Z" fill="#3A3A3A"/>
</svg>
